<svg id="svg" version="1.1" width="400" height="400" viewBox="0 0 400 400" xmlns="http://www.w3.org/2000/svg" xmlns:xlink="http://www.w3.org/1999/xlink"><g id="svgg"><path id="path0" d="M85.781 55.951 C 56.997 60.418,45.569 95.662,66.223 116.271 C 88.340 138.340,125.937 122.488,125.938 91.094 C 125.938 69.589,106.652 52.712,85.781 55.951 M268.906 146.258 C 248.066 147.774,228.151 159.270,217.500 175.931 L 216.406 177.642 216.325 164.759 L 216.243 151.875 187.653 151.875 L 159.063 151.875 159.063 248.125 L 159.063 344.375 187.648 344.375 L 216.233 344.375 216.324 289.766 L 216.415 235.156 217.136 231.250 C 220.656 212.173,231.145 201.869,248.688 200.255 C 268.160 198.464,280.041 208.228,284.117 229.375 L 284.810 232.969 284.913 288.672 L 285.016 344.375 314.696 344.375 L 344.375 344.375 344.374 281.328 C 344.372 209.754,344.381 210.036,341.885 198.594 C 334.216 163.438,306.450 143.526,268.906 146.258 M61.250 248.125 L 61.250 344.375 91.094 344.375 L 120.938 344.375 120.938 248.125 L 120.938 151.875 91.094 151.875 L 61.250 151.875 61.250 248.125 " stroke="none" fill="#fbfbfb" fill-rule="evenodd"></path><path id="path1" d="M38.438 0.208 C 18.710 3.315,3.744 17.771,0.501 36.852 C -0.267 41.369,-0.267 358.631,0.501 363.148 C 3.484 380.698,16.148 394.190,34.143 398.989 L 37.344 399.843 198.750 399.924 C 342.468 399.996,360.464 399.953,362.969 399.527 C 381.668 396.347,396.340 381.736,399.499 363.148 C 400.267 358.631,400.267 41.369,399.499 36.852 C 396.361 18.388,381.612 3.639,363.148 0.501 C 360.404 0.034,41.367 -0.253,38.438 0.208 M97.366 56.109 C 115.086 59.291,127.877 76.433,125.996 94.478 C 122.853 124.631,86.909 137.526,65.781 116.081 C 41.439 91.373,63.239 49.980,97.366 56.109 M287.711 146.825 C 318.644 151.626,338.374 172.207,343.263 204.772 C 344.535 213.245,344.531 213.046,344.531 280.000 L 344.531 344.531 314.776 344.611 L 285.021 344.691 284.916 289.767 C 284.802 229.695,284.903 233.094,282.987 225.143 C 279.027 208.710,268.738 200.319,252.540 200.314 C 234.590 200.307,222.694 209.555,218.296 226.936 C 216.375 234.525,216.464 231.626,216.335 290.703 L 216.216 344.688 187.639 344.688 L 159.063 344.688 159.063 248.281 L 159.063 151.875 187.653 151.875 L 216.243 151.875 216.325 164.565 L 216.406 177.255 217.969 174.959 C 232.765 153.212,259.464 142.442,287.711 146.825 M120.938 248.281 L 120.938 344.688 91.094 344.688 L 61.250 344.688 61.250 248.281 L 61.250 151.875 91.094 151.875 L 120.938 151.875 120.938 248.281 " stroke="none" fill="#047cbc" fill-rule="evenodd"></path><path id="path2" d="M90.082 55.537 C 90.557 55.609,91.261 55.607,91.645 55.532 C 92.029 55.458,91.641 55.400,90.781 55.402 C 89.922 55.404,89.607 55.465,90.082 55.537 M55.402 91.094 C 55.404 91.953,55.465 92.268,55.537 91.793 C 55.609 91.318,55.607 90.614,55.532 90.230 C 55.458 89.846,55.400 90.234,55.402 91.094 M90.082 126.787 C 90.557 126.859,91.261 126.857,91.645 126.782 C 92.029 126.708,91.641 126.650,90.781 126.652 C 89.922 126.654,89.607 126.715,90.082 126.787 M344.452 282.420 L 344.375 344.372 314.609 344.453 L 284.844 344.534 314.619 344.611 C 338.209 344.672,344.425 344.606,344.543 344.297 C 344.625 344.082,344.655 316.133,344.611 282.188 L 344.530 220.469 344.452 282.420 M216.335 241.563 C 216.335 242.336,216.396 242.652,216.471 242.266 C 216.545 241.879,216.545 241.246,216.471 240.859 C 216.396 240.473,216.335 240.789,216.335 241.563 M75.992 344.609 C 84.186 344.656,97.686 344.656,105.992 344.609 C 114.298 344.563,107.594 344.525,91.094 344.525 C 74.594 344.525,67.798 344.563,75.992 344.609 M173.383 344.609 C 181.345 344.656,194.283 344.656,202.133 344.609 C 209.983 344.563,203.469 344.525,187.656 344.525 C 171.844 344.525,165.421 344.563,173.383 344.609 " stroke="none" fill="#2d9bcc" fill-rule="evenodd"></path><path id="path3" d="M65.921 65.859 L 64.844 67.031 66.016 65.954 C 67.106 64.952,67.331 64.688,67.093 64.688 C 67.040 64.688,66.513 65.215,65.921 65.859 M126.016 91.094 C 126.020 91.781,126.084 92.026,126.159 91.637 C 126.233 91.248,126.230 90.686,126.152 90.387 C 126.074 90.088,126.013 90.406,126.016 91.094 M65.938 116.406 C 66.521 117.008,67.068 117.500,67.154 117.500 C 67.240 117.500,66.833 117.008,66.250 116.406 C 65.667 115.805,65.120 115.313,65.034 115.313 C 64.948 115.313,65.354 115.805,65.938 116.406 M270.238 146.159 C 270.627 146.233,271.189 146.230,271.488 146.152 C 271.787 146.074,271.469 146.013,270.781 146.016 C 270.094 146.020,269.849 146.084,270.238 146.159 M277.891 146.153 C 278.191 146.232,278.684 146.232,278.984 146.153 C 279.285 146.074,279.039 146.010,278.438 146.010 C 277.836 146.010,277.590 146.074,277.891 146.153 M225.614 165.859 L 223.906 167.656 225.703 165.948 C 227.372 164.361,227.643 164.063,227.411 164.063 C 227.362 164.063,226.554 164.871,225.614 165.859 M251.016 200.230 C 251.832 200.294,253.168 200.294,253.984 200.230 C 254.801 200.165,254.133 200.113,252.500 200.113 C 250.867 200.113,250.199 200.165,251.016 200.230 M227.171 209.609 L 226.094 210.781 227.266 209.704 C 228.356 208.702,228.581 208.438,228.343 208.438 C 228.290 208.438,227.763 208.965,227.171 209.609 M344.135 215.625 C 344.135 216.227,344.199 216.473,344.278 216.172 C 344.357 215.871,344.357 215.379,344.278 215.078 C 344.199 214.777,344.135 215.023,344.135 215.625 " stroke="none" fill="#78bcdc" fill-rule="evenodd"></path><path id="path4" d="" stroke="none" fill="#59acd4" fill-rule="evenodd"></path></g></svg>